#N canvas 106 102 2564 1253 16;
#X obj 34 49 soundfiler;
#X floatatom 34 78 15 0 0 0 - - - 0;
#X obj 26 429 phasor~;
#X obj 26 458 *~;
#X obj 366 675 dac~, f 6;
#X obj 34 106 expr 44100/$f1;
#X floatatom 34 135 5 0 0 0 - - - 0;
#X obj 158 224 osc~;
#X floatatom 158 199 5 5 100 0 - - - 0;
#X obj 158 282 +~ 0.01;
#X obj 158 253 *~ 0.0002;
#X obj 932 -26 oscparse;
#X obj 932 32 list trim;
#X obj 932 -69 iemnet/udpreceive 11000;
#X text 1174 -71 enter OSC port here;
#X text 1031 -32 parse OSC packets into Pd messages;
#X text 1037 29 convert list to message \, using first item as selector
;
#X obj 948 57 print trim;
#X obj 948 -2 print oscparse;
#X obj 932 86 route all;
#X obj 947 112 print /all;
#X obj 932 170 s enabled;
#X obj 330 199 r enabled;
#N canvas 155 141 1912 1076 chopSys 0;
#X obj 159 121 hsl 128 15 0 1 0 0 empty empty sample_Red_Mushroom -2
-8 0 10 #fcfcfc #000000 #000000 0 1;
#X obj 296 121 hsl 128 15 0 1 0 0 empty empty sample_Blue_Telephone
-2 -8 0 10 #fcfcfc #000000 #000000 0 1;
#X obj 434 121 hsl 128 15 0 1 0 0 empty empty sample_Yellow_Clock -2
-8 0 10 #fcfcfc #000000 #000000 0 1;
#X obj 156 6 r strechRed;
#X obj 293 7 r strechBlue;
#X obj 431 7 r strechYellow;
#X floatatom 156 35 5 0 0 0 - - - 0;
#X floatatom 293 35 5 0 0 0 - - - 0;
#X floatatom 431 36 5 0 0 0 - - - 0;
#X obj 156 63 * 0.0036;
#X obj 293 64 * 0.0036;
#X obj 431 65 * 0.0036;
#X text 1 47 range: 0-0.918;
#X obj 583 6 table sample_Red_Mushroom;
#X obj 583 41 table sample_Blue_Telephone;
#X obj 582 76 table sample_Yellow_Clock;
#X obj 156 141 s Start_RM;
#X obj 293 141 s Start_BT;
#X obj 431 141 s Start_YC;
#N canvas 76 76 1538 1217 play_BT 0;
#X obj 174 16 loadbang;
#X obj 174 74 soundfiler;
#X floatatom 174 103 12 0 0 0 - - - 0;
#X obj 45 343 *~;
#X obj 342 314 vline~;
#X obj 44 130 *;
#X floatatom 54 165 7 0 0 0 - - - 0;
#X msg 45 196 \$1 44100;
#X obj 342 263 bng 15 250 50 0 empty empty empty 17 7 0 10 #fcfcfc
#000000 #000000;
#X obj 44 101 r Start_BT;
#X obj 45 425 outlet~;
#X obj 45 290 tabplay~ sample_Blue_Telephone;
#X msg 174 45 read -resize telephone.wav sample_Blue_Telephone;
#X msg 340 283 0.6 50 \, 0 50 700;
#X text 129 161 playback from start point and the duration is 1 sec
;
#X text 308 235 envelope: attack and release time;
#X connect 0 0 12 0;
#X connect 1 0 2 0;
#X connect 2 0 5 1;
#X connect 3 0 10 0;
#X connect 4 0 3 1;
#X connect 5 0 6 0;
#X connect 5 0 7 0;
#X connect 7 0 8 0;
#X connect 7 0 11 0;
#X connect 8 0 13 0;
#X connect 9 0 5 0;
#X connect 11 0 3 0;
#X connect 12 0 1 0;
#X connect 13 0 4 0;
#X restore 294 210 pd play_BT;
#N canvas 437 340 1538 1217 play_RM 0;
#X obj 174 16 loadbang;
#X obj 174 74 soundfiler;
#X floatatom 174 103 12 0 0 0 - - - 0;
#X obj 45 343 *~;
#X obj 342 314 vline~;
#X obj 44 130 *;
#X floatatom 54 165 7 0 0 0 - - - 0;
#X obj 45 290 tabplay~ sample_Red_Mushroom;
#X msg 45 196 \$1 44100;
#X obj 342 263 bng 15 250 50 0 empty empty empty 17 7 0 10 #fcfcfc
#000000 #000000;
#X obj 45 425 outlet~;
#X msg 174 45 read -resize mushroom.wav sample_Red_Mushroom;
#X obj 44 101 r Start_RM;
#X msg 340 283 1.3 50 \, 0 50 700;
#X text 129 161 playback from start point and the duration is 1 sec
;
#X text 308 235 envelope: attack and release time;
#X connect 0 0 11 0;
#X connect 1 0 2 0;
#X connect 2 0 5 1;
#X connect 3 0 10 0;
#X connect 4 0 3 1;
#X connect 5 0 6 0;
#X connect 5 0 8 0;
#X connect 7 0 3 0;
#X connect 8 0 7 0;
#X connect 8 0 9 0;
#X connect 9 0 13 0;
#X connect 11 0 1 0;
#X connect 12 0 5 0;
#X connect 13 0 4 0;
#X restore 158 210 pd play_RM;
#N canvas 526 136 1538 1217 play_YC 0;
#X obj 174 16 loadbang;
#X obj 174 74 soundfiler;
#X floatatom 174 103 12 0 0 0 - - - 0;
#X obj 45 343 *~;
#X obj 342 314 vline~;
#X obj 44 130 *;
#X floatatom 54 165 7 0 0 0 - - - 0;
#X msg 45 196 \$1 44100;
#X obj 342 263 bng 15 250 50 0 empty empty empty 17 7 0 10 #fcfcfc
#000000 #000000;
#X obj 45 425 outlet~;
#X msg 340 283 0.5 50 \, 0 50 700;
#X obj 45 290 tabplay~ sample_Yellow_Clock;
#X msg 174 45 read -resize clock.wav sample_Yellow_Clock;
#X obj 44 101 r Start_YC;
#X text 129 161 playback from start point and the duration is 1 sec
;
#X text 308 235 envelope: attack and release time;
#X connect 0 0 12 0;
#X connect 1 0 2 0;
#X connect 2 0 5 1;
#X connect 3 0 9 0;
#X connect 4 0 3 1;
#X connect 5 0 6 0;
#X connect 5 0 7 0;
#X connect 7 0 8 0;
#X connect 7 0 11 0;
#X connect 8 0 10 0;
#X connect 10 0 4 0;
#X connect 11 0 3 0;
#X connect 12 0 1 0;
#X connect 13 0 5 0;
#X restore 407 210 pd play_YC;
#X obj 294 387 outlet~;
#X obj 294 351 lop~ 20000;
#X obj 465 270 sel 0 1, f 16;
#X msg 465 320 20000;
#X obj 294 303 *~ 1.2;
#X obj 465 299 bng 15 250 50 0 empty empty empty 17 7 0 10 #fcfcfc
#000000 #000000;
#X obj 540 299 bng 15 250 50 0 empty empty empty 17 7 0 10 #fcfcfc
#000000 #000000;
#X msg 540 319 1000;
#X obj 540 225 tgl 15 0 empty empty empty 17 7 0 10 #fcfcfc #000000
#000000 0 1;
#X text -4 25 255*0.0036=0.918;
#X text -17 141 send start point:;
#X text 592 -24 ---Sample tables---;
#X obj 15 455 r RedInput;
#X obj 15 552 s Start_RM;
#X obj 190 454 r BlueInput;
#X obj 190 552 s Start_BT;
#N canvas -24 321 450 540 random 0;
#X obj 24 -39 random 10;
#X obj 24 -10 * 0.01;
#X obj 23 -99 tgl 15 0 empty empty empty 17 7 0 10 #fcfcfc #000000
#000000 0 1;
#X floatatom 24 25 5 0 0 0 - - - 0;
#X obj 22 -128 loadbang;
#X obj 154 32 outlet;
#X obj 154 -35 inlet;
#X obj 154 -5 +;
#X obj 23 -71 metro 100;
#X connect 0 0 1 0;
#X connect 1 0 3 0;
#X connect 2 0 8 0;
#X connect 3 0 7 1;
#X connect 4 0 2 0;
#X connect 6 0 7 0;
#X connect 7 0 5 0;
#X connect 8 0 0 0;
#X connect 8 0 7 0;
#X restore 399 483 pd random module;
#X floatatom 399 512 5 0 0 0 - - - 0;
#X obj 367 454 r YellowInput;
#X obj 367 551 s Start_YC;
#X obj 540 191 r switchMode;
#X text 466 360 use switch state button to switch lowpass filter cutoff
frequency between 1000 and 20000Hz - normal mode: 20000Hz - DARK SPACE
mode: 1000Hz;
#X text 576 507 ---How to use: connect Red/Blue/YellowInput to the
inlet;
#X text 576 531 ---Then connect its outlet to s Start_RM/BT/YC;
#N canvas -24 321 450 540 random 0;
#X obj 24 -39 random 10;
#X obj 24 -10 * 0.01;
#X obj 23 -99 tgl 15 0 empty empty empty 17 7 0 10 #fcfcfc #000000
#000000 0 1;
#X floatatom 24 25 5 0 0 0 - - - 0;
#X obj 22 -128 loadbang;
#X obj 154 32 outlet;
#X obj 154 -35 inlet;
#X obj 154 -5 +;
#X obj 23 -71 metro 100;
#X connect 0 0 1 0;
#X connect 1 0 3 0;
#X connect 2 0 8 0;
#X connect 3 0 7 1;
#X connect 4 0 2 0;
#X connect 6 0 7 0;
#X connect 7 0 5 0;
#X connect 8 0 0 0;
#X connect 8 0 7 0;
#X restore 226 483 pd random module;
#X floatatom 226 512 5 0 0 0 - - - 0;
#N canvas -24 321 450 540 random 0;
#X obj 24 -39 random 10;
#X obj 24 -10 * 0.01;
#X obj 23 -99 tgl 15 0 empty empty empty 17 7 0 10 #fcfcfc #000000
#000000 0 1;
#X floatatom 24 25 5 0 0 0 - - - 0;
#X obj 22 -128 loadbang;
#X obj 154 32 outlet;
#X obj 154 -35 inlet;
#X obj 154 -5 +;
#X obj 23 -71 metro 100;
#X connect 0 0 1 0;
#X connect 1 0 3 0;
#X connect 2 0 8 0;
#X connect 3 0 7 1;
#X connect 4 0 2 0;
#X connect 6 0 7 0;
#X connect 7 0 5 0;
#X connect 8 0 0 0;
#X connect 8 0 7 0;
#X restore 32 486 pd random module;
#X floatatom 32 515 5 0 0 0 - - - 0;
#X text 576 456 ---This is a random module to experiment with---;
#X text 576 481 ---CONTINUOUSLY MAKING NOISE---;
#X connect 0 0 16 0;
#X connect 1 0 17 0;
#X connect 2 0 18 0;
#X connect 3 0 6 0;
#X connect 4 0 7 0;
#X connect 5 0 8 0;
#X connect 6 0 9 0;
#X connect 7 0 10 0;
#X connect 8 0 11 0;
#X connect 9 0 0 0;
#X connect 10 0 1 0;
#X connect 11 0 2 0;
#X connect 19 0 26 0;
#X connect 20 0 26 0;
#X connect 21 0 26 0;
#X connect 23 0 22 0;
#X connect 24 0 27 0;
#X connect 24 1 28 0;
#X connect 25 0 23 1;
#X connect 26 0 23 0;
#X connect 27 0 25 0;
#X connect 28 0 29 0;
#X connect 29 0 23 1;
#X connect 30 0 24 0;
#X connect 34 0 35 0;
#X connect 34 0 48 0;
#X connect 36 0 37 0;
#X connect 36 0 46 0;
#X connect 38 0 39 0;
#X connect 40 0 41 0;
#X connect 40 0 38 0;
#X connect 42 0 30 0;
#X connect 46 0 47 0;
#X connect 48 0 49 0;
#X restore -272 122 pd chopSys;
#X msg 430 20 read -resize train.wav train;
#X obj 572 -65 table train;
#X obj 462 -64 table bgm;
#X msg 34 20 read -resize crackleSleep.wav bgm;
#X obj 26 487 tabread4~ bgm;
#X obj 430 49 soundfiler;
#X floatatom 430 78 12 0 0 0 - - - 0;
#X obj 430 110 expr 44100/$f1;
#X floatatom 430 139 5 0 0 0 - - - 0;
#X obj 312 455 phasor~;
#X obj 312 484 *~;
#X obj 312 513 tabread4~ train;
#X obj 562 451 noise~;
#X obj 562 480 lop~ 60;
#X obj 478 428 tgl 15 0 empty empty empty 17 7 0 10 #fcfcfc #000000
#000000 0 1;
#X obj 26 536 *~ 0.6;
#X obj 312 542 *~ 1;
#X msg 300 395 0.002;
#X obj 478 395 metro -1;
#X obj 562 521 *~ 0;
#X msg 364 394 0.004;
#X obj 1054 170 s strechRed;
#X obj 1177 171 s strechBlue;
#X obj 1300 170 s strechYellow;
#X msg 478 359 1;
#X msg 536 359 0;
#X obj 449 260 sel 1 0, f 16;
#X obj 159 135 loadbang;
#X msg 159 164 5;
#X floatatom 198 312 5 0 0 0 - - - 0;
#X obj 158 333 *~;
#X msg 242 365 1;
#X msg 193 365 0.2;
#X msg 191 408 1.3;
#X msg 245 407 0.6;
#X obj 478 454 * 0.6;
#X obj 401 294 t b b b;
#X obj 512 294 t b b b;
#X obj 449 213 tgl 30 0 empty empty Switch\ State\ Here! 35 7 0 20
#00faff #000000 #ff8300 0 1;
#X obj 562 550 lop~ 1200;
#X text 346 -114 load background music and ambience track initialize
the gain setup of music and playbackrate of amb;
#X text 318 174 receive the enabled states;
#X text 658 487 use enabled states to switch noise~ on and off;
#X text -46 584 use enabled states to switch playback speed of amb
and bgm;
#X obj 932 141 route enabled strechRed strechBlue strechYellow Start
, f 65;
#X obj 1423 211 s Start;
#X obj 247 -221 r Start;
#X obj 9 -156 tgl 50 0 empty empty Start\ Button\ Here 0 -10 0 20 #00ff04
#000000 #ff8300 0 1;
#X obj 247 -50 t b b b b;
#X text 376 -178 DSP on/off;
#X msg 359 -155 \; pd dsp \$1;
#X obj 359 -178 tgl 15 0 empty empty empty 17 7 0 10 #fcfcfc #000000
#000000 0 1;
#X text -402 -146 // Sketch for Final Project: Endless MOMO // Author:
Y.T.Hu // Email: yutianhu@hotmail.com // Date: 12 Dec 2022;
#X text 930 -133 // This part is for connection to external control
resources message input:;
#X text 427 -13 ---(ambience loading)---;
#X text 31 -15 ---(bgm loading)---;
#X text -371 90 ---(Object Audio Granular System)---;
#X text -384 -40 --- sensor control simulation panel ---;
#X obj -367 -4 hsl 128 15 0 0.9 0 0 RedInput empty RedSensor-Mushroom
-2 -8 0 10 #ff0400 #000000 #551312 0 1;
#X text -67 534 [VOLUME];
#X text -118 277 playback speed switch: - 1: original speed -0.2: speed
×0.2;
#X text -171 183 (Modulate the speed of playback: - 5Hz LFO);
#X text 570 387 apply distortion effect with metro -1;
#X obj -368 28 hsl 128 15 0 0.9 0 0 BlueInput empty BlueSensor-Telephone
-2 -8 0 10 #0400ff #000000 #131255 0 1;
#X obj -368 60 hsl 128 15 0 0.9 0 0 YellowInput empty YellowSensor-Clock
-2 -8 0 10 #faff00 #000000 #535512 0 1;
#X obj 620 256 s switchMode;
#X connect 0 0 1 0;
#X connect 1 0 5 0;
#X connect 1 0 3 1;
#X connect 2 0 3 0;
#X connect 3 0 28 0;
#X connect 5 0 6 0;
#X connect 7 0 10 0;
#X connect 8 0 7 0;
#X connect 9 0 54 0;
#X connect 10 0 9 0;
#X connect 11 0 12 0;
#X connect 11 0 18 0;
#X connect 12 0 17 0;
#X connect 12 0 19 0;
#X connect 13 0 11 0;
#X connect 19 0 20 0;
#X connect 19 0 68 0;
#X connect 22 0 62 0;
#X connect 23 0 4 0;
#X connect 23 0 4 1;
#X connect 24 0 29 0;
#X connect 27 0 0 0;
#X connect 28 0 39 0;
#X connect 29 0 30 0;
#X connect 30 0 31 0;
#X connect 30 0 34 1;
#X connect 31 0 32 0;
#X connect 33 0 34 0;
#X connect 34 0 35 0;
#X connect 35 0 40 0;
#X connect 36 0 37 0;
#X connect 37 0 43 0;
#X connect 38 0 59 0;
#X connect 39 0 4 0;
#X connect 39 0 4 1;
#X connect 40 0 4 0;
#X connect 40 0 4 1;
#X connect 41 0 33 0;
#X connect 42 0 38 0;
#X connect 43 0 63 0;
#X connect 44 0 33 0;
#X connect 48 0 42 0;
#X connect 49 0 42 0;
#X connect 49 0 43 1;
#X connect 50 0 60 0;
#X connect 50 1 61 0;
#X connect 51 0 52 0;
#X connect 52 0 8 0;
#X connect 53 0 54 1;
#X connect 54 0 2 0;
#X connect 55 0 53 0;
#X connect 55 0 58 0;
#X connect 56 0 53 0;
#X connect 56 0 57 0;
#X connect 57 0 39 1;
#X connect 58 0 39 1;
#X connect 59 0 43 1;
#X connect 60 0 56 0;
#X connect 60 1 48 0;
#X connect 60 2 41 0;
#X connect 61 0 55 0;
#X connect 61 1 49 0;
#X connect 61 2 44 0;
#X connect 62 0 50 0;
#X connect 62 0 89 0;
#X connect 63 0 4 1;
#X connect 63 0 4 0;
#X connect 68 0 21 0;
#X connect 68 1 45 0;
#X connect 68 2 46 0;
#X connect 68 3 47 0;
#X connect 68 4 69 0;
#X connect 70 0 71 0;
#X connect 71 0 72 0;
#X connect 71 0 75 0;
#X connect 72 0 27 0;
#X connect 72 1 55 0;
#X connect 72 2 44 0;
#X connect 72 3 24 0;
#X connect 75 0 74 0;
